<?xml version="1.0" encoding="utf-8"?>
<!-- Generator: Adobe Illustrator 27.5.0, SVG Export Plug-In . SVG Version: 6.00 Build 0)  -->
<svg version="1.1" id="Capa_1" xmlns="http://www.w3.org/2000/svg" xmlns:xlink="http://www.w3.org/1999/xlink" x="0px" y="0px"
	 viewBox="0 0 2122 2122" style="enable-background:new 0 0 2122 2122;" xml:space="preserve">
<path style="fill:#E5281D;" d="M1687.854,807.445c-80.677-79.848-194.684-120.331-307.932-119.255
	c34.386-40,56.402-90.066,57.399-143.163c-52.546,64.538-134.713,103.9-217.909,104.389
	c79.722-78.163,103.552-207.729,56.877-309.162c-22.758,63.678-45.953,128.263-84.965,183.532
	c-50.1,70.967-141.958,111.189-234.051,138.066c-10.967-20.309-17.583-41.479-20.984-68.334
	c-17.189-134.994-7.893-283.983-90.183-392.377c-6.261-8.221-13.272-16.329-22.636-20.706c-15.187-7.081-31.629-2.794-46.908,5.428
	c-8.663,4.658-16.931,10.597-24.409,16.443c-9.038,7.079-18.378,14.648-22.845,25.223C722.389,243.785,729,263,739.904,276.881
	c10.923,13.905,25.685,24.175,38.29,36.568c51.006,50.097,61.51,128.633,55.966,199.927
	c-4.775,61.254-19.167,121.997-20.287,183.157c-79.932,16.98-162.616,20.962-243.78,11.53
	c-45.603-5.286-191.708-19.333-219.216-61.279c56.994,86.945,151.23,148.548,253.73,165.9c-15.34,22.333-28.09,46.374-38.294,71.46
	c-64.755,30.567-122.526,76.59-165.453,133.867c-97.915,130.614-119.668,311.111-68.166,466.034
	c101.808,306.411,425.266,462.947,732.413,460.389c5.228-0.039,10.456-0.141,15.683-0.282
	c148.117-3.859,285.5-45.467,401.305-118.334c157.413-99.108,274.87-256.068,325.003-454.878
	C1856.283,1176.093,1830.675,948.828,1687.854,807.445z"/>
<path style="fill:#138B53;" d="M1219.411,649.416c79.722-78.163,103.552-207.729,56.877-309.162
	c-22.758,63.678-45.953,128.263-84.965,183.532c-50.1,70.967-141.958,111.189-234.051,138.066
	c-10.967-20.309-17.583-41.479-20.984-68.334c-17.189-134.994-7.893-283.983-90.183-392.377
	c-6.261-8.221-13.272-16.329-22.636-20.706c-15.187-7.081-31.629-2.794-46.908,5.428c-8.663,4.658-16.931,10.597-24.409,16.443
	c-9.038,7.079-18.378,14.648-22.845,25.223C722.389,243.785,729,263,739.904,276.881c10.923,13.905,25.685,24.175,38.29,36.568
	c51.006,50.097,61.51,128.633,55.966,199.927c-4.775,61.254-19.167,121.997-20.287,183.157
	c-79.932,16.98-162.616,20.962-243.78,11.53c-45.603-5.286-191.708-19.333-219.216-61.279
	c56.994,86.945,151.23,148.548,253.73,165.9c-15.34,22.333-28.09,46.374-38.294,71.46c-25.413,62.478-34.558,131.634-25.102,198.454
	c36.541-82.168,109.14-147.522,194.709-175.259c-12.95,85.732,6.733,176.005,54.197,248.579
	c5.964-88.248,47.98-173.537,114.314-232.068c13.949,97.564,95.932,179.966,191.586,200c14.606,3.074,29.535,4.702,44.579,4.677
	c-49.817-71.803-68.823-164.243-51.332-249.883c82.567,40.083,179.201,50.377,268.355,28.624
	c-78.446-17.888-149.549-66.146-195.127-132.431c63.877,10.254,128.87-10.939,179.632-50.59
	c13.756-10.745,26.446-22.848,37.799-36.056c34.386-40,56.402-90.066,57.399-143.163
	C1384.775,609.565,1302.608,648.926,1219.411,649.416z"/>
<path style="fill:#BB1818;" d="M1379.922,688.19c-11.353,13.208-24.043,25.31-37.799,36.056
	c102.223,130.959,170.442,291.844,166.74,457.352c-1.647,73.286-17.155,145.769-39.537,215.62
	c-61.603,192.039-176.638,366.679-328.755,499.151c-19.05,16.594-39.016,32.624-59.781,47.781
	c148.117-3.859,285.5-45.467,401.305-118.334c157.413-99.108,274.87-256.068,325.003-454.878
	c49.184-194.845,23.576-422.109-119.245-563.493C1607.177,727.597,1493.17,687.114,1379.922,688.19z"/>
<path style="fill:#ED6D6E;" d="M739.057,1580.618c-28.497-42.577-50.743-89.383-65.437-138.475
	c-19.732-65.939-26.534-136.584-58.875-197.34c-32.336-60.76-102.475-110.129-167.893-88.73
	c-46.762,15.293-77.232,63.293-83.961,112.034c-6.728,48.736,6.402,98.056,23.713,144.112
	c51.055,135.839,141.481,258.211,262.27,338.645c35.167,23.416,82.217,48.414,125.861,36.088
	c42.514-12.01,71.055-54.616,54.222-96.268C813.029,1651.273,763.232,1616.745,739.057,1580.618z"/>
<path style="fill:#ED6D6E;" d="M1009.049,1783.785c-15.367-9.364-30.728-18.733-46.09-28.102
	c-16.268-9.92-33.355-20.112-52.36-21.432c-57.384-3.98-84.214,71.62-45.369,109.871c29.048,28.604,110.577,47.255,146.246,31.591
	c23.932-10.514,40.424-40.57,28.682-63.922C1033.799,1799.151,1021.122,1791.151,1009.049,1783.785z"/>
<path style="fill:#31672C;" d="M809.195,218.608c34.163,48.56,53.076,106.95,62.392,165.179
	c14.417,89.946,9.038,182.039,20.965,272.336c2.163,16.327,6.265,34.704,20.516,42.997c9.179,5.332,20.472,5.077,31.094,4.355
	c56.784-3.936,112.935-17.049,165.598-38.641c-13.394,31.466-39.644,57.225-71.342,70.059
	c19.147,19.216,40.434,36.287,63.327,50.821c-26.27,14.37-60.019,14.044-86.012-0.838c-20.171,82.377-2.49,169.926,29.462,248.511
	c12.882,31.676,29.486,63.559,50.821,90.463c14.606,3.074,29.535,4.702,44.579,4.677c-49.817-71.803-68.823-164.243-51.332-249.883
	c82.567,40.083,179.201,50.377,268.355,28.624c-78.446-17.888-149.549-66.146-195.127-132.431
	c63.877,10.254,128.87-10.939,179.632-50.59c13.756-10.745,26.446-22.848,37.799-36.056c34.386-40,56.402-90.066,57.399-143.163
	c-52.546,64.538-134.713,103.9-217.909,104.389c79.722-78.163,103.552-207.729,56.877-309.162
	c-22.758,63.678-45.953,128.263-84.965,183.532c-50.1,70.967-141.958,111.189-234.051,138.066
	c-10.967-20.309-17.583-41.479-20.984-68.334c-17.189-134.994-7.893-283.983-90.183-392.377
	c-6.261-8.221-13.272-16.329-22.636-20.706c-15.187-7.081-31.629-2.794-46.908,5.428C789.512,197.6,802.135,208.593,809.195,218.608
	z"/>
</svg>
